<?xml version="1.0" encoding="utf-8"?>
<!-- Generator: Adobe Illustrator 23.0.3, SVG Export Plug-In . SVG Version: 6.00 Build 0)  -->
<svg version="1.1" id="Capa_1" xmlns="http://www.w3.org/2000/svg" xmlns:xlink="http://www.w3.org/1999/xlink" x="0px" y="0px"
	 viewBox="0 0 50 50" style="enable-background:new 0 0 50 50;" xml:space="preserve">
<g>
	<path style="fill:#040006;" d="M34,29H3.8C1.7,29,0,27.3,0,25.2s1.7-3.8,3.8-3.8H34c2.1,0,3.8,1.7,3.8,3.8S36.1,29,34,29z"/>
</g>
<g>
	<path style="fill:#040006;" d="M46.2,42.3H3.8c-2.1,0-3.8-1.7-3.8-3.8s1.7-3.8,3.8-3.8h42.3c2.1,0,3.8,1.7,3.8,3.8
		S48.3,42.3,46.2,42.3z"/>
</g>
<g>
	<path style="fill:#040006;" d="M46.2,15.3H3.8c-2.1,0-3.8-1.7-3.8-3.8s1.7-3.8,3.8-3.8h42.3c2.1,0,3.8,1.7,3.8,3.8
		S48.3,15.3,46.2,15.3z"/>
</g>
</svg>
